<svg width="1280" height="760" viewBox="0 0 1280 760" fill="none" xmlns="http://www.w3.org/2000/svg">
  <rect width="1280" height="760" rx="28" fill="#F4F7FB"/>
  <rect x="44" y="50" width="1192" height="124" rx="24" fill="#FFFFFF" stroke="#D5DFEA" stroke-width="2"/>
  <text x="80" y="104" fill="#102033" font-family="IBM Plex Sans, Arial" font-size="34" font-weight="600">Benchmark results screenshot placeholder</text>
  <text x="80" y="136" fill="#5F7084" font-family="IBM Plex Sans, Arial" font-size="20">A clean visual stand-in for the benchmark view until real screenshots are captured.</text>
  <rect x="44" y="206" width="1192" height="498" rx="24" fill="#FFFFFF" stroke="#D5DFEA" stroke-width="2"/>
  <text x="86" y="258" fill="#1768AC" font-family="IBM Plex Mono, Arial" font-size="18">scenario</text>
  <text x="440" y="258" fill="#1768AC" font-family="IBM Plex Mono, Arial" font-size="18">tasks</text>
  <text x="576" y="258" fill="#1768AC" font-family="IBM Plex Mono, Arial" font-size="18">seus</text>
  <text x="698" y="258" fill="#1768AC" font-family="IBM Plex Mono, Arial" font-size="18">saved</text>
  <text x="832" y="258" fill="#1768AC" font-family="IBM Plex Mono, Arial" font-size="18">dedup</text>
  <text x="978" y="258" fill="#1768AC" font-family="IBM Plex Mono, Arial" font-size="18">false-collapse</text>
  <line x1="80" y1="282" x2="1188" y2="282" stroke="#E0E8F1" stroke-width="2"/>
  <g font-family="IBM Plex Sans, Arial" font-size="24" fill="#12304A">
    <text x="86" y="350">coding_repo_scan</text>
    <text x="86" y="434">document_research</text>
    <text x="86" y="518">api_fanout</text>
    <text x="86" y="602">false_collapse_safety</text>
  </g>
  <g font-family="IBM Plex Mono, Arial" font-size="24" fill="#12304A">
    <text x="452" y="350">3</text>
    <text x="452" y="434">3</text>
    <text x="452" y="518">3</text>
    <text x="452" y="602">4</text>
    <text x="582" y="350">2</text>
    <text x="582" y="434">2</text>
    <text x="582" y="518">2</text>
    <text x="582" y="602">4</text>
    <text x="708" y="350">1</text>
    <text x="708" y="434">1</text>
    <text x="708" y="518">1</text>
    <text x="708" y="602">0</text>
    <text x="836" y="350">1.5x</text>
    <text x="836" y="434">1.5x</text>
    <text x="836" y="518">1.5x</text>
    <text x="836" y="602">1.0x</text>
    <text x="1018" y="350">0.00</text>
    <text x="1018" y="434">0.00</text>
    <text x="1018" y="518">0.00</text>
    <text x="1018" y="602">0.00</text>
  </g>
</svg>
