<svg width="1280" height="760" viewBox="0 0 1280 760" fill="none" xmlns="http://www.w3.org/2000/svg">
  <rect width="1280" height="760" rx="30" fill="#F3F7FC"/>
  <rect x="34" y="34" width="1212" height="692" rx="26" fill="#FFFFFF" stroke="#D8E2EE" stroke-width="2"/>
  <rect x="58" y="58" width="1164" height="72" rx="18" fill="#F8FBFF" stroke="#D8E2EE"/>
  <text x="88" y="104" fill="#102033" font-family="IBM Plex Sans, Arial" font-size="30" font-weight="600">Local shared execution dashboard</text>

  <rect x="58" y="158" width="1164" height="112" rx="22" fill="#FBFDFF" stroke="#D8E2EE"/>
  <rect x="86" y="188" width="168" height="52" rx="16" fill="#EEF5FF" stroke="#C3D7F1"/>
  <rect x="276" y="188" width="168" height="52" rx="16" fill="#EEF5FF" stroke="#C3D7F1"/>
  <rect x="466" y="188" width="168" height="52" rx="16" fill="#EEF5FF" stroke="#C3D7F1"/>
  <rect x="656" y="188" width="168" height="52" rx="16" fill="#EEF5FF" stroke="#C3D7F1"/>
  <rect x="846" y="188" width="168" height="52" rx="16" fill="#EEF5FF" stroke="#C3D7F1"/>
  <text x="114" y="210" fill="#5C7087" font-family="IBM Plex Sans, Arial" font-size="15">Tasks received</text>
  <text x="316" y="210" fill="#5C7087" font-family="IBM Plex Sans, Arial" font-size="15">SEUs created</text>
  <text x="492" y="210" fill="#5C7087" font-family="IBM Plex Sans, Arial" font-size="15">Collapsed tasks</text>
  <text x="690" y="210" fill="#5C7087" font-family="IBM Plex Sans, Arial" font-size="15">Executions saved</text>
  <text x="892" y="210" fill="#5C7087" font-family="IBM Plex Sans, Arial" font-size="15">Dedup multiplier</text>
  <g fill="#102033" font-family="IBM Plex Sans, Arial" font-size="24" font-weight="600">
    <text x="152" y="228">4</text>
    <text x="354" y="228">2</text>
    <text x="558" y="228">2</text>
    <text x="750" y="228">2</text>
    <text x="950" y="228">2.0x</text>
  </g>

  <rect x="58" y="298" width="360" height="396" rx="22" fill="#FBFDFF" stroke="#D8E2EE"/>
  <rect x="446" y="298" width="776" height="396" rx="22" fill="#FBFDFF" stroke="#D8E2EE"/>
  <text x="88" y="344" fill="#102033" font-family="IBM Plex Sans, Arial" font-size="24" font-weight="600">Incoming task stream</text>
  <text x="476" y="344" fill="#102033" font-family="IBM Plex Sans, Arial" font-size="24" font-weight="600">Shared execution units</text>

  <rect x="84" y="370" width="308" height="94" rx="16" fill="#F8FBFF" stroke="#D8E2EE"/>
  <rect x="84" y="480" width="308" height="94" rx="16" fill="#F8FBFF" stroke="#D8E2EE"/>
  <rect x="84" y="590" width="308" height="72" rx="16" fill="#FFF6E4" stroke="#E9D09A"/>
  <text x="104" y="404" fill="#102033" font-family="IBM Plex Sans, Arial" font-size="18" font-weight="600">scan-1 / planner</text>
  <text x="104" y="428" fill="#1D6DC0" font-family="IBM Plex Mono, Arial" font-size="14">new SEU</text>
  <text x="104" y="514" fill="#102033" font-family="IBM Plex Sans, Arial" font-size="18" font-weight="600">scan-2 / coder</text>
  <text x="104" y="538" fill="#1D6DC0" font-family="IBM Plex Mono, Arial" font-size="14">semantic overlap</text>
  <text x="104" y="624" fill="#915F00" font-family="IBM Plex Sans, Arial" font-size="18" font-weight="600">why collapsed? overlap above threshold</text>

  <rect x="476" y="370" width="716" height="148" rx="18" fill="#F8FBFF" stroke="#1D6DC0" stroke-width="2"/>
  <text x="504" y="410" fill="#1D6DC0" font-family="IBM Plex Sans, Arial" font-size="24" font-weight="600">seu-7d1c2a / repo_scan</text>
  <text x="504" y="446" fill="#5C7087" font-family="IBM Plex Sans, Arial" font-size="18">Status: COMPLETED · subscribers: 3 · reason: semantic overlap</text>
  <rect x="504" y="470" width="224" height="18" rx="9" fill="#EAF4EC"/>
  <rect x="504" y="470" width="224" height="18" rx="9" fill="#1D6DC0"/>

  <rect x="476" y="544" width="716" height="118" rx="18" fill="#FBFDFF" stroke="#D8E2EE"/>
  <text x="504" y="584" fill="#102033" font-family="IBM Plex Sans, Arial" font-size="22" font-weight="600">Fan-out payload</text>
  <text x="504" y="618" fill="#5C7087" font-family="IBM Plex Mono, Arial" font-size="15">result: runtime state transition map, metrics hook locations, benchmark entrypoints</text>
</svg>
