<svg width="1200" height="560" viewBox="0 0 1200 560" fill="none" xmlns="http://www.w3.org/2000/svg">
  <rect width="1200" height="560" rx="28" fill="#F6F9FD"/>
  <text x="86" y="76" fill="#12304A" font-family="IBM Plex Sans, Arial" font-size="34" font-weight="600">Before</text>
  <text x="646" y="76" fill="#12304A" font-family="IBM Plex Sans, Arial" font-size="34" font-weight="600">After</text>
  <rect x="70" y="120" width="436" height="340" rx="24" fill="#FFFFFF" stroke="#CBD7E6" stroke-width="2"/>
  <rect x="628" y="120" width="500" height="340" rx="24" fill="#FFFFFF" stroke="#CBD7E6" stroke-width="2"/>
  <text x="108" y="170" fill="#5C6F84" font-family="IBM Plex Sans, Arial" font-size="22">parallel branches independently repeat similar work</text>
  <text x="666" y="170" fill="#5C6F84" font-family="IBM Plex Sans, Arial" font-size="22">overlap collapses into one shared execution unit</text>
  <rect x="112" y="212" width="144" height="66" rx="14" fill="#EAF1FA" stroke="#AFC4DB"/>
  <rect x="112" y="306" width="144" height="66" rx="14" fill="#EAF1FA" stroke="#AFC4DB"/>
  <rect x="112" y="400" width="144" height="66" rx="14" fill="#EAF1FA" stroke="#AFC4DB"/>
  <rect x="324" y="212" width="120" height="66" rx="14" fill="#FFE6E3" stroke="#E7B3AB"/>
  <rect x="324" y="306" width="120" height="66" rx="14" fill="#FFE6E3" stroke="#E7B3AB"/>
  <rect x="324" y="400" width="120" height="66" rx="14" fill="#FFE6E3" stroke="#E7B3AB"/>
  <text x="132" y="251" fill="#12304A" font-family="IBM Plex Sans, Arial" font-size="20" font-weight="600">branch A</text>
  <text x="132" y="345" fill="#12304A" font-family="IBM Plex Sans, Arial" font-size="20" font-weight="600">branch B</text>
  <text x="132" y="439" fill="#12304A" font-family="IBM Plex Sans, Arial" font-size="20" font-weight="600">branch C</text>
  <text x="340" y="251" fill="#A63B2B" font-family="IBM Plex Sans, Arial" font-size="18" font-weight="600">scan</text>
  <text x="340" y="345" fill="#A63B2B" font-family="IBM Plex Sans, Arial" font-size="18" font-weight="600">scan</text>
  <text x="340" y="439" fill="#A63B2B" font-family="IBM Plex Sans, Arial" font-size="18" font-weight="600">scan</text>
  <rect x="706" y="236" width="160" height="82" rx="16" fill="#DCEAFE" stroke="#1768AC" stroke-width="2"/>
  <text x="733" y="272" fill="#1768AC" font-family="IBM Plex Sans, Arial" font-size="22" font-weight="600">SEU</text>
  <text x="733" y="301" fill="#4F6580" font-family="IBM Plex Sans, Arial" font-size="17">one execution</text>
  <rect x="954" y="162" width="118" height="58" rx="14" fill="#EAF1FA" stroke="#AFC4DB"/>
  <rect x="954" y="250" width="118" height="58" rx="14" fill="#EAF1FA" stroke="#AFC4DB"/>
  <rect x="954" y="338" width="118" height="58" rx="14" fill="#EAF1FA" stroke="#AFC4DB"/>
  <text x="975" y="197" fill="#12304A" font-family="IBM Plex Sans, Arial" font-size="18" font-weight="600">branch A</text>
  <text x="975" y="285" fill="#12304A" font-family="IBM Plex Sans, Arial" font-size="18" font-weight="600">branch B</text>
  <text x="975" y="373" fill="#12304A" font-family="IBM Plex Sans, Arial" font-size="18" font-weight="600">branch C</text>
  <path d="M256 245H324" stroke="#C06A5F" stroke-width="3"/>
  <path d="M256 339H324" stroke="#C06A5F" stroke-width="3"/>
  <path d="M256 433H324" stroke="#C06A5F" stroke-width="3"/>
  <path d="M866 277H954" stroke="#1768AC" stroke-width="3"/>
  <path d="M866 277C905 277 905 191 954 191" stroke="#1768AC" stroke-width="3"/>
  <path d="M866 277C905 277 905 367 954 367" stroke="#1768AC" stroke-width="3"/>
</svg>
