<svg width="1400" height="760" viewBox="0 0 1400 760" fill="none" xmlns="http://www.w3.org/2000/svg">
  <rect width="1400" height="760" rx="30" fill="#F6FAFE"/>
  <rect x="34" y="34" width="1332" height="692" rx="28" fill="white" stroke="#D8E2EE" stroke-width="2"/>
  <text x="82" y="104" fill="#1D6DC0" font-family="IBM Plex Mono, Arial" font-size="24">benchmark-summary</text>
  <text x="82" y="156" fill="#102033" font-family="IBM Plex Sans, Arial" font-size="44" font-weight="600">Preliminary benchmark preview from the local harness</text>
  <text x="82" y="196" fill="#5C7087" font-family="IBM Plex Sans, Arial" font-size="22">Tasks requested vs actual executions, with explicit visibility into saved work.</text>

  <g font-family="IBM Plex Sans, Arial" font-size="20" fill="#5C7087">
    <text x="96" y="318">coding_repo_scan</text>
    <text x="96" y="408">document_research</text>
    <text x="96" y="498">api_fanout</text>
    <text x="96" y="588">false_collapse_safety</text>
  </g>

  <line x1="300" y1="248" x2="300" y2="624" stroke="#D7E1ED" stroke-width="2"/>
  <line x1="300" y1="624" x2="1260" y2="624" stroke="#D7E1ED" stroke-width="2"/>
  <g fill="#1D6DC0" opacity="0.95">
    <rect x="300" y="286" width="640" height="26" rx="13"/>
    <rect x="300" y="376" width="480" height="26" rx="13"/>
    <rect x="300" y="466" width="480" height="26" rx="13"/>
    <rect x="300" y="556" width="640" height="26" rx="13"/>
  </g>
  <g fill="#88B7F5">
    <rect x="300" y="320" width="320" height="18" rx="9"/>
    <rect x="300" y="410" width="320" height="18" rx="9"/>
    <rect x="300" y="500" width="320" height="18" rx="9"/>
    <rect x="300" y="590" width="640" height="18" rx="9"/>
  </g>
  <g fill="#1A7B54">
    <rect x="956" y="286" width="160" height="26" rx="13"/>
    <rect x="796" y="376" width="160" height="26" rx="13"/>
    <rect x="796" y="466" width="160" height="26" rx="13"/>
  </g>

  <g font-family="IBM Plex Mono, Arial" font-size="16" fill="#102033">
    <text x="1128" y="304">2 saved</text>
    <text x="968" y="394">1 saved</text>
    <text x="968" y="484">1 saved</text>
    <text x="952" y="574">0 saved</text>
  </g>

  <rect x="1002" y="86" width="300" height="110" rx="22" fill="#F8FBFF" stroke="#D7E1ED" stroke-width="2"/>
  <rect x="1030" y="116" width="20" height="20" rx="10" fill="#1D6DC0"/>
  <text x="1062" y="132" fill="#102033" font-family="IBM Plex Sans, Arial" font-size="18">tasks requested</text>
  <rect x="1030" y="148" width="20" height="20" rx="10" fill="#88B7F5"/>
  <text x="1062" y="164" fill="#102033" font-family="IBM Plex Sans, Arial" font-size="18">actual executions</text>
  <rect x="1030" y="180" width="20" height="20" rx="10" fill="#1A7B54"/>
  <text x="1062" y="196" fill="#102033" font-family="IBM Plex Sans, Arial" font-size="18">executions saved</text>
</svg>
